<mxfile host="app.diagrams.net" modified="2023-03-25T10:26:53.131Z" agent="Mozilla/5.0 (Windows NT 10.0; Win64; x64) AppleWebKit/537.36 (KHTML, like Gecko) Chrome/111.0.0.0 Safari/537.36 Edg/111.0.1661.51" version="21.1.0" etag="yR-2IRKTFzTkggSiAkXB" type="github">
  <diagram name="第 1 页" id="d_KsAn3AraaSTQC53h_L">
    <mxGraphModel>
      <root>
        <mxCell id="0" />
        <mxCell id="1" parent="0" />
      </root>
    </mxGraphModel>
  </diagram>
</mxfile>
